<svg width="28" height="28" viewBox="0 0 28 28" fill="none" xmlns="http://www.w3.org/2000/svg">
<path opacity="0.6" fill-rule="evenodd" clip-rule="evenodd" d="M5.76774 0.0798229C3.81565 0.44382 2.26771 1.89257 1.73574 3.85339C1.56427 4.48534 1.5658 5.75074 1.7388 6.40474C1.98553 7.33734 2.59627 8.34865 3.26541 8.9325C3.61256 9.23542 4.16083 9.60671 4.42272 9.71622C4.5157 9.7551 4.59085 9.8026 4.58965 9.82165C4.5885 9.84076 4.46002 9.91852 4.30414 9.99445C3.40871 10.4307 2.52139 11.3627 2.06588 12.3456L1.90136 12.7005H1.13808C0.562517 12.7005 0.335312 12.7211 0.214215 12.7844C-0.0714052 12.9335 -0.0714052 13.3512 0.214215 13.5003C0.352486 13.5725 0.828994 13.5843 3.64555 13.5851L6.91635 13.586L7.13403 13.7105C7.71211 14.0411 7.75073 14.9121 7.20476 15.3054L7.02574 15.4343L3.64352 15.4619L0.261254 15.4895L0.129328 15.6444C-0.0391894 15.8423 -0.0384237 16.0383 0.131625 16.2099C0.262184 16.3418 0.288328 16.3455 1.0836 16.3455H1.90136L2.06588 16.7005C2.53058 17.7031 3.41249 18.6173 4.40035 19.1203C4.79465 19.3211 5.48102 19.5285 6.00971 19.6066C7.2 19.7823 8.57029 19.434 9.59589 18.695C9.93002 18.4543 10.8271 17.5445 10.8271 17.4464C10.8271 17.418 10.8517 17.3948 10.8818 17.3948C10.9165 17.3948 10.9365 17.802 10.9365 18.5061C10.9365 19.225 10.9664 19.8208 11.0213 20.1938C11.2302 21.6146 11.8253 23.0583 12.6952 24.2542C13.1407 24.8669 14.1277 25.8413 14.7662 26.2989C15.3225 26.6977 16.3567 27.2413 16.9825 27.4639C17.5956 27.682 18.5632 27.879 19.3265 27.941C20.3451 28.0237 27.5897 28.0177 27.7453 27.934C27.9946 27.7999 27.998 27.7755 27.9998 26.0866C28.0015 24.5443 27.9969 24.4728 27.8886 24.3338L27.7757 24.1889L25.5004 24.1744L23.2251 24.16L23.5212 23.9613C24.5467 23.2729 25.4506 22.1487 25.8553 21.0582L26.0051 20.6544L26.8146 20.6538C27.8205 20.653 28.0054 20.5811 27.9998 20.193C27.9977 20.0489 27.9069 19.9207 27.7453 19.8338C27.6577 19.7866 26.5866 19.7695 23.7287 19.7695C19.8693 19.7695 19.8294 19.7684 19.5921 19.6524C19.2278 19.4743 19.0588 19.1789 19.0588 18.7202C19.0588 18.2616 19.2278 17.9661 19.5921 17.7881C19.8049 17.684 19.9272 17.6709 20.6865 17.6709C21.4957 17.6709 21.5487 17.6643 21.6791 17.5467C21.9048 17.343 21.9166 17.1516 21.7159 16.9489L21.5451 16.7764L20.6027 16.7964C19.7077 16.8154 19.644 16.8241 19.3323 16.9703C17.8145 17.6823 17.8145 19.7555 19.3323 20.4708L19.6604 20.6255L22.3815 20.6418C23.8782 20.6507 25.1026 20.6716 25.1026 20.6882C25.1026 20.7048 24.9871 20.9442 24.846 21.2202C23.8381 23.1905 21.8613 24.2854 19.6022 24.1247C17.5497 23.9788 15.6691 22.4968 14.9866 20.4875C14.5376 19.1657 14.6383 17.5426 15.2454 16.3179C15.9247 14.9474 17.1856 13.8995 18.6817 13.462C19.0628 13.3505 19.2291 13.336 20.098 13.3387C21.0079 13.3415 21.1189 13.353 21.5632 13.4909C23.0266 13.9451 24.1673 14.8936 24.846 16.2202C24.9871 16.4962 25.1026 16.7367 25.1026 16.7547C25.1026 16.7726 24.6485 16.7873 24.0933 16.7873C23.4597 16.7873 23.0336 16.8105 22.9485 16.8497C22.6447 16.9894 22.6447 17.4688 22.9485 17.6085C23.0423 17.6517 23.7834 17.6709 25.3541 17.6709C27.277 17.6709 27.6486 17.6581 27.7846 17.5871C28.0703 17.4379 28.0703 17.0203 27.7846 16.8711C27.6625 16.8073 27.4305 16.7871 26.8146 16.7867L26.0051 16.7861L25.8553 16.3822C25.7728 16.1601 25.5832 15.7731 25.4339 15.5223C24.426 13.829 22.8237 12.763 20.8637 12.4816C19.3715 12.2673 17.5919 12.7437 16.3486 13.6903C15.8909 14.0387 15.24 14.7272 14.9434 15.1767L14.7125 15.5266L14.6978 11.358C14.6837 7.34756 14.6792 7.18503 14.5789 7.07325C14.4226 6.89885 14.0955 6.91403 13.9487 7.10252C13.8357 7.24766 13.8353 7.26373 13.8353 13.0691C13.8353 19.2115 13.848 19.5813 14.0873 20.4254C14.2597 21.0338 14.7366 22.0132 15.0868 22.4784C15.4313 22.9359 16.1218 23.6041 16.5623 23.9061C17.3305 24.4328 18.4053 24.8436 19.3175 24.9591C19.5863 24.9932 21.2574 25.016 23.474 25.016H27.1811V26.0679V27.1198L23.0105 27.1001C18.9644 27.081 18.8248 27.0769 18.333 26.961C16.579 26.5478 15.2589 25.8012 14.0518 24.5398C12.9826 23.4224 12.2788 22.0801 11.9128 20.4599L11.788 19.9076L11.7711 10.3672L11.7542 0.82687H12.7948H13.8353L13.8362 3.27064C13.8368 5.12144 13.8536 5.74771 13.9057 5.85153C14.0489 6.13727 14.4817 6.13899 14.6274 5.8544C14.6983 5.71601 14.7105 5.30319 14.7105 3.03504C14.7105 0.312934 14.7045 0.230591 14.4965 0.0692747C14.4329 0.0200127 13.9827 0.00151189 12.8172 0.000241683C11.2876 -0.00147033 11.219 0.00300299 11.0806 0.112959L10.9365 0.227388V1.2451C10.9365 1.80482 10.918 2.26259 10.8955 2.26237C10.8729 2.26215 10.7947 2.17346 10.7217 2.06527C10.392 1.57646 9.71704 0.984321 9.07682 0.622146C8.14667 0.0960042 6.83441 -0.119047 5.76774 0.0798229ZM7.65474 0.973386C8.51647 1.17756 9.4691 1.80521 10.0086 2.52425C10.5585 3.25722 10.8131 3.96887 10.8646 4.91616C10.9494 6.47769 10.2387 7.87702 8.93111 8.72314L8.50252 9.00049L8.47353 6.88802C8.44613 4.89319 8.43798 4.75927 8.32722 4.48258C8.14787 4.03464 7.87062 3.73128 7.44919 3.52192C7.12599 3.36132 7.03022 3.33978 6.64358 3.34039C6.27646 3.34094 6.15443 3.36596 5.89649 3.49337C5.53698 3.67097 5.17834 4.04088 5.0108 4.40687C4.89769 4.65395 4.8914 4.75882 4.86526 6.83241L4.83791 8.99971L4.49896 8.79295C3.78863 8.3597 3.24594 7.76673 2.86909 7.01212C2.07901 5.43021 2.36704 3.51386 3.592 2.20273C4.3148 1.42906 5.14721 1.01873 6.31469 0.860503C6.58079 0.824496 7.27198 0.882649 7.65474 0.973386ZM7.11861 4.28586C7.55596 4.50926 7.73082 5.148 7.47523 5.58838C7.14295 6.16086 6.35714 6.24232 5.9444 5.74705C5.62651 5.3656 5.63926 4.86177 5.97613 4.49269C6.27794 4.16199 6.71971 4.08202 7.11861 4.28586ZM16.4938 6.30809C16.3593 6.42997 15.4215 8.60606 15.4215 8.79626C15.4215 8.84442 15.4792 8.95145 15.5496 9.03412C15.7052 9.21681 15.9792 9.23791 16.1284 9.07863C16.2237 8.9768 17.1718 6.75653 17.1718 6.63497C17.1718 6.50122 17.042 6.30262 16.9171 6.24513C16.725 6.15682 16.6481 6.16826 16.4938 6.30809ZM5.99325 6.80027C6.34718 6.95871 6.91334 6.96026 7.31289 6.80386L7.60004 6.69147V9.83098V12.9705L7.34024 12.854C7.13475 12.7618 6.93461 12.7321 6.38306 12.7117L5.68569 12.6859V9.68336C5.68569 8.03198 5.69488 6.68087 5.70609 6.68087C5.71731 6.68087 5.8465 6.7346 5.99325 6.80027ZM18.1465 8.71044C17.1794 9.68353 17.1014 9.81795 17.3546 10.0736C17.4479 10.1678 17.5548 10.2154 17.6733 10.2154C17.8307 10.2154 17.9534 10.1127 18.715 9.34361C19.5137 8.53719 19.5784 8.45684 19.5784 8.27073C19.5784 8.11918 19.5428 8.04132 19.4343 7.95511C19.1515 7.7305 19.0767 7.77441 18.1465 8.71044ZM10.9339 9.84258L10.9313 11.7341L10.7839 11.5408C10.2933 10.8975 9.56515 10.2611 9.00845 9.98898C8.86553 9.91912 8.74865 9.84667 8.74865 9.828C8.74865 9.80928 8.83972 9.75019 8.95097 9.69656C9.50936 9.42772 10.3105 8.74959 10.6957 8.21986C10.8031 8.07202 10.9013 7.95108 10.9138 7.95108C10.9262 7.95108 10.9353 8.80222 10.9339 9.84258ZM19.551 10.7973C18.9452 11.0555 18.4144 11.3159 18.3614 11.3807C18.1518 11.6371 18.3402 12.0378 18.6704 12.0378C18.8819 12.0378 21.0067 11.1231 21.1235 10.9817C21.3439 10.7151 21.1635 10.3234 20.8227 10.3284C20.7249 10.3298 20.1527 10.5409 19.551 10.7973ZM4.86526 11.6789V12.7005H3.85339C3.29686 12.7005 2.84152 12.6899 2.84152 12.6769C2.84152 12.6639 2.93335 12.4962 3.04559 12.3041C3.31086 11.8502 4.03219 11.1267 4.48113 10.8643C4.67601 10.7504 4.84212 10.6572 4.85033 10.6572C4.85853 10.6572 4.86526 11.1169 4.86526 11.6789ZM9.02213 10.994C9.85957 11.5775 10.4073 12.3397 10.7263 13.3656C10.8937 13.9038 10.9074 15.0624 10.7531 15.6275C10.3471 17.1141 9.16122 18.2877 7.68208 18.6668C7.09088 18.8182 6.19945 18.8199 5.62356 18.6706C4.82883 18.4645 4.14202 18.0499 3.56651 17.4286C3.2886 17.1287 2.84152 16.4837 2.84152 16.3827C2.84152 16.3655 3.79525 16.3439 4.96098 16.3347L7.08043 16.3179L7.38935 16.1716C7.95863 15.9021 8.31655 15.4143 8.42201 14.764C8.45089 14.5859 8.47468 13.5881 8.47484 12.5467L8.47517 10.6533L8.59824 10.7189C8.66595 10.7549 8.85667 10.8787 9.02213 10.994Z" fill="white"/>
</svg>
