<svg width="22" height="28" viewBox="0 0 22 28" fill="none" xmlns="http://www.w3.org/2000/svg">
<path opacity="0.6" fill-rule="evenodd" clip-rule="evenodd" d="M5.80518 0.058675C5.41564 0.133083 4.80631 0.444173 4.49196 0.729165C3.86207 1.30024 3.55917 1.97768 3.51262 2.91943L3.48294 3.51902L2.65573 4.34193C1.8984 5.09542 1.80986 5.20419 1.60776 5.62995C1.24074 6.40303 1.22072 6.59917 1.22072 9.42299V11.9076L0.976029 11.9767C0.680291 12.0601 0.283857 12.3988 0.119793 12.7081L0 12.9339V17.1208V21.3077L0.138619 21.5793C0.301761 21.8991 0.649366 22.1856 0.983462 22.2757C1.21594 22.3384 1.22072 22.3443 1.22072 22.5697C1.22072 23.2679 1.57082 24.2402 2.01619 24.779C2.37757 25.2161 4.5263 27.2064 4.89675 27.4471C5.09434 27.5754 5.4528 27.7477 5.69336 27.83L6.1307 27.9796L10.7921 27.995C14.7586 28.0082 15.518 27.9982 15.8861 27.9282C16.3464 27.8406 16.8589 27.6248 17.2381 27.3588C17.6051 27.1014 19.8068 25.0007 20.0427 24.6829C20.4638 24.1157 20.7522 23.2839 20.7522 22.6365C20.7522 22.3517 20.7641 22.317 20.8625 22.317C21.041 22.317 21.4854 22.0633 21.6486 21.8683C21.9806 21.4717 21.9975 21.3771 21.9988 19.9082C22.0001 18.4535 21.9851 18.3723 21.7024 18.3008C21.5444 18.2608 21.2707 18.3834 21.2199 18.517C21.2014 18.5657 21.1862 19.1723 21.1862 19.8649V21.1243L21.0017 21.3103C20.8202 21.4933 20.8097 21.4963 20.3453 21.4963C19.8803 21.4963 19.8705 21.4935 19.6877 21.3092L19.5023 21.1222L19.5168 17.092L19.5314 13.0617L19.7086 12.9021C19.8748 12.7524 19.9143 12.7425 20.3453 12.7425C20.7762 12.7425 20.8157 12.7524 20.9819 12.902L21.1591 13.0616L21.1862 15.1501L21.2133 17.2386L21.3414 17.3431C21.5074 17.4786 21.6789 17.4756 21.857 17.3342L22 17.2209L21.9976 15.1321C21.995 12.8553 21.9905 12.8165 21.6811 12.4226C21.5112 12.2062 21.0391 11.9218 20.85 11.9218C20.7571 11.9218 20.7522 11.7923 20.7522 9.35909C20.7522 6.99944 20.7438 6.76341 20.6466 6.38021C20.4236 5.50121 20.104 5.02626 19.1291 4.12538L18.4778 3.52356L18.4748 3.05851C18.469 2.13793 18.2023 1.46066 17.611 0.864412C17.397 0.64852 17.1148 0.432191 16.9136 0.329771C16.2421 -0.0120123 16.3828 -0.00424323 10.9864 0.0016109C8.14971 0.00467475 5.96192 0.0287478 5.80518 0.058675ZM15.9887 0.876831C16.645 1.01728 17.1667 1.43768 17.4604 2.0627L17.6326 2.42933V7.54486V12.6604L17.4604 13.027C17.1589 13.6687 16.6295 14.0857 15.9489 14.2175C15.7165 14.2625 14.2635 14.2755 10.7965 14.2636C5.98188 14.2471 5.96713 14.2467 5.68023 14.1281C5.12391 13.8981 4.68462 13.4547 4.45919 12.8958C4.34808 12.6203 4.3413 12.5052 4.3241 10.6087C4.30652 8.66562 4.30299 8.60839 4.19166 8.48863C4.03764 8.32285 3.8019 8.32904 3.62905 8.50335L3.49233 8.64122L3.51067 10.7055L3.52901 12.7698L3.67278 13.1462C4.04691 14.1257 4.89583 14.8607 5.85585 15.0362C6.07016 15.0754 7.80178 15.0948 11.0371 15.0942C16.3745 15.0934 16.244 15.1008 16.9136 14.7599C17.3552 14.5351 17.9183 13.9673 18.1412 13.522C18.4733 12.8585 18.4718 12.8807 18.4727 8.59805C18.4731 6.45407 18.4937 4.69986 18.5184 4.69986C18.5924 4.69986 19.3688 5.53131 19.5146 5.76673C19.5891 5.8871 19.7087 6.1333 19.7804 6.31385L19.9106 6.64212L19.9273 9.28195C19.9435 11.8235 19.9404 11.9218 19.8433 11.9218C19.6517 11.9218 19.1805 12.2048 19.0094 12.4226C18.6849 12.8357 18.6954 12.6793 18.6941 17.1467C18.6928 21.6876 18.6737 21.4285 19.0419 21.8683C19.2082 22.067 19.6506 22.317 19.836 22.317C19.9497 22.317 19.953 22.3322 19.921 22.7136C19.8813 23.1864 19.7283 23.661 19.4999 24.02C19.3526 24.2515 18.5139 25.0848 17.2089 26.2963C16.7087 26.7606 16.1917 27.04 15.6696 27.1282C15.4072 27.1726 13.9825 27.1861 10.7694 27.1749L6.23921 27.1589L5.87142 27.0147C5.33046 26.8026 5.19873 26.6991 3.87081 25.4438C2.61238 24.2542 2.40975 24.0065 2.19832 23.4C2.13994 23.2324 2.08525 22.9294 2.0769 22.7267L2.06165 22.3582L2.32668 22.2791C2.66718 22.1774 3.12118 21.7329 3.21639 21.4079C3.2656 21.2399 3.28237 20.1409 3.28237 17.0782V12.9738L3.13084 12.6813C2.95402 12.34 2.61342 12.0552 2.27178 11.9631L2.03453 11.8991L2.03496 9.51682C2.03518 8.11867 2.05889 6.98762 2.09225 6.77889C2.18806 6.18035 2.46905 5.67575 3.00508 5.13974L3.47226 4.6725L3.49938 5.95822C3.5143 6.66537 3.54615 7.28372 3.57018 7.3323C3.67641 7.54715 4.00905 7.57839 4.21825 7.39314C4.30576 7.31561 4.31319 7.13446 4.31319 5.08185C4.31319 3.80674 4.33669 2.7286 4.36821 2.55987C4.47878 1.96772 4.86262 1.41454 5.37245 1.1128C5.86757 0.819713 5.8086 0.822831 10.9431 0.818947C14.2722 0.81643 15.7875 0.833828 15.9887 0.876831ZM6.92976 1.69056C6.28674 1.78772 5.66585 2.25567 5.36789 2.86773L5.20838 3.19529L5.1914 7.38072C5.17947 10.3235 5.19249 11.6504 5.23519 11.8497C5.3642 12.452 5.88298 13.0307 6.53761 13.3025L6.836 13.4263H10.9593C14.7749 13.4263 15.1033 13.4191 15.3596 13.3289C15.9801 13.1104 16.4456 12.6621 16.6927 12.045L16.8187 11.7303V7.54486V3.35942L16.6921 3.04308C16.4537 2.44738 16.0413 2.03152 15.4506 1.79106L15.1369 1.66336L11.1763 1.65538C8.99803 1.65095 7.08709 1.66681 6.92976 1.69056ZM15.2454 2.61535C15.3647 2.67121 15.5405 2.79989 15.636 2.90138C15.9441 3.22894 15.9778 3.38486 15.9778 4.48413V5.47556L15.5845 5.13273C14.5509 4.23191 13.4365 3.70257 12.0715 3.46414C11.2792 3.32572 10.1259 3.38109 9.28899 3.59775C8.22914 3.87207 7.12312 4.46542 6.40007 5.14745C6.21447 5.32258 6.04742 5.46582 6.02887 5.46582C6.01026 5.46582 5.99507 5.02189 5.99507 4.47926C5.99507 3.3905 6.01948 3.27593 6.32689 2.92282C6.70265 2.49126 6.44608 2.5138 10.9864 2.5138C14.8097 2.5138 15.0401 2.51927 15.2454 2.61535ZM10.5958 4.55186C10.6092 4.80769 10.6359 4.8792 10.7523 4.97155C10.9127 5.09881 10.9824 5.10729 11.1678 5.02211C11.3371 4.94431 11.4205 4.75708 11.4205 4.45453V4.21434L11.6239 4.24186C11.9356 4.2841 12.6868 4.43133 12.731 4.45891C12.7526 4.47236 12.7352 4.56822 12.6922 4.67195C12.518 5.0923 12.6513 5.42932 12.9917 5.42932C13.2021 5.42932 13.3079 5.33265 13.4477 5.01259L13.5635 4.74729L14.0488 5.04279C14.3157 5.20534 14.5422 5.36279 14.5521 5.39272C14.562 5.42265 14.4962 5.54088 14.4058 5.6555C14.2142 5.89869 14.1939 6.12887 14.3502 6.28649C14.533 6.47081 14.7827 6.43076 15.0275 6.17789C15.273 5.92441 15.2587 5.91839 15.7143 6.46715L15.9778 6.78458V9.1908C15.9778 11.8426 15.9801 11.8226 15.636 12.1883C15.5405 12.2898 15.3647 12.4185 15.2454 12.4744C15.0401 12.5704 14.8097 12.5759 10.9864 12.5759C6.44608 12.5759 6.70265 12.5985 6.32689 12.1669C5.9897 11.7796 5.99507 11.8273 5.99507 9.20666V6.81637L6.20834 6.53773C6.32564 6.38453 6.49437 6.18894 6.58329 6.1031L6.74497 5.94711L6.94598 6.17149C7.10597 6.35006 7.18453 6.39591 7.33058 6.39591C7.73863 6.39591 7.85598 5.99608 7.55899 5.61791L7.38674 5.39863L7.5183 5.29659C7.67672 5.17371 8.35105 4.80928 8.41995 4.80928C8.44692 4.80928 8.50139 4.90163 8.54099 5.01445C8.63094 5.27055 8.69697 5.35497 8.85474 5.41543C9.02087 5.47917 9.22193 5.39622 9.33928 5.21557C9.42929 5.07704 9.42929 5.05663 9.33956 4.80178C9.28763 4.65434 9.25893 4.51121 9.27581 4.48369C9.31927 4.41273 10.3698 4.20165 10.5253 4.23262C10.5551 4.23858 10.5868 4.38225 10.5958 4.55186ZM10.7423 6.42726C10.6414 6.50402 10.6319 6.59129 10.6067 7.66588L10.5795 8.82193L10.3354 8.95187C9.13762 9.58932 9.15005 11.224 10.357 11.7907C10.6662 11.9359 11.1304 11.9646 11.4768 11.86C11.8211 11.7559 12.1873 11.4341 12.3689 11.076C12.7681 10.289 12.4325 9.30153 11.6441 8.94301L11.4264 8.84404L11.4099 7.69712C11.3936 6.56716 11.3914 6.54861 11.2652 6.4457C11.1125 6.32107 10.892 6.3133 10.7423 6.42726ZM11.3946 9.75652C11.7035 9.96059 11.8119 10.443 11.6164 10.7438C11.2112 11.3676 10.2815 11.102 10.2815 10.3625C10.2815 9.78332 10.9141 9.43897 11.3946 9.75652ZM2.28409 12.9285L2.46856 13.1145V17.0902C2.46856 19.9105 2.45092 21.1005 2.40796 21.1853C2.2791 21.4394 2.14461 21.4938 1.64205 21.4951C1.19435 21.4962 1.15838 21.4875 0.991004 21.3367L0.81381 21.1771L0.799867 17.1923C0.78614 13.2819 0.787931 13.2042 0.895137 13.0278C1.03717 12.7942 1.15881 12.7501 1.67374 12.7459C2.08764 12.7426 2.10484 12.7477 2.28409 12.9285ZM4.94921 15.6558C4.80604 15.7646 4.20469 17.1006 4.20469 17.31C4.20469 17.56 4.40808 17.7212 4.72363 17.7212H4.95665L4.79882 18.1574C4.64056 18.5947 4.63937 18.7057 4.79101 18.8838C4.90006 19.0119 5.24468 19.011 5.36008 18.8825C5.49289 18.7345 5.99903 17.3041 5.95893 17.1902C5.88618 16.9838 5.76416 16.9005 5.53456 16.9005C5.40988 16.9005 5.29394 16.8865 5.27696 16.8694C5.25998 16.8522 5.3297 16.6556 5.43191 16.4325C5.63477 15.9899 5.63531 15.8102 5.43424 15.6683C5.29443 15.5695 5.07042 15.5638 4.94921 15.6558ZM16.7768 15.6558C16.6533 15.7497 16.0332 17.1125 16.0325 17.2911C16.0317 17.5352 16.1936 17.6772 16.5073 17.7076L16.7857 17.7346L16.653 18.09C16.499 18.5028 16.4873 18.6888 16.6048 18.8579C16.7125 19.0129 17.0576 19.0272 17.1879 18.882C17.3311 18.7224 17.829 17.3366 17.7899 17.2066C17.7239 16.9876 17.5995 16.9005 17.3529 16.9005C17.0659 16.9005 17.0615 16.8686 17.2823 16.3926C17.4647 15.9996 17.4593 15.8078 17.2616 15.6683C17.1218 15.5695 16.8977 15.5638 16.7768 15.6558ZM10.0058 15.9397C6.95167 16.5818 5.16791 19.6557 6.11464 22.6452C6.4699 23.7671 7.32424 24.8571 8.3179 25.4563C8.82886 25.7644 9.64045 26.0599 10.2269 26.1513C10.7741 26.2367 11.7734 26.1855 12.2993 26.0452C14.1399 25.5543 15.6021 24.0181 16.017 22.1389C16.1503 21.5353 16.1368 20.4443 15.9885 19.84C15.527 17.9589 14.1515 16.5301 12.314 16.0231C11.7623 15.8708 10.543 15.8268 10.0058 15.9397ZM12.0986 16.82C12.8511 17.0234 13.7964 17.6169 14.2493 18.1703C14.7145 18.7387 15.0161 19.3391 15.1918 20.0464C15.3148 20.5419 15.3175 21.4961 15.1975 22.0061C15.1056 22.3962 14.9038 22.9188 14.8451 22.9188C14.8264 22.9188 13.5184 21.6151 11.9385 20.0218L9.06612 17.1247L9.30744 17.0215C9.53313 16.9249 10.0814 16.7688 10.3896 16.7135C10.662 16.6646 11.7819 16.7344 12.0986 16.82ZM11.4151 20.6429L14.4205 23.6739L14.2192 23.9217C14.1085 24.0579 13.9313 24.236 13.8254 24.3174L13.6328 24.4655L10.6012 21.4088L7.56963 18.3519L7.93378 17.9818C8.13409 17.7783 8.32311 17.6118 8.35387 17.6118C8.38458 17.6118 9.76214 18.9758 11.4151 20.6429ZM10.0343 22.0407L12.9068 24.9378L12.6383 25.0554C12.2608 25.2211 11.4625 25.3796 11.0136 25.3782C9.25128 25.3727 7.64564 24.2814 6.98954 22.6433C6.60434 21.6816 6.59783 20.4647 6.97262 19.4546C7.03604 19.2836 7.10456 19.1437 7.12491 19.1437C7.14525 19.1437 8.45451 20.4474 10.0343 22.0407Z" fill="white"/>
</svg>
