<svg width="28" height="25" viewBox="0 0 28 25" fill="none" xmlns="http://www.w3.org/2000/svg">
<path opacity="0.6" fill-rule="evenodd" clip-rule="evenodd" d="M4.72263 0.0889176C3.49615 0.311649 2.52589 0.815679 1.66328 1.678C0.926645 2.41445 0.449665 3.24051 0.167799 4.26793L0.0235016 4.79395L0.00588838 8.97734C-0.0128736 13.4369 -0.000183257 13.7276 0.248535 14.5205C0.500974 15.3253 1.1089 16.3628 1.39077 16.47C1.54415 16.5283 1.73822 16.4715 1.85134 16.3352C1.98306 16.1765 1.93618 15.9573 1.69441 15.6014C1.3835 15.1436 1.11591 14.5673 0.967396 14.0357C0.846893 13.6041 0.844979 13.5438 0.826819 9.55153C0.814292 6.80602 0.827858 5.35797 0.868882 5.04801C1.12422 3.11873 2.54039 1.51461 4.45186 0.989413C4.85735 0.87802 5.04092 0.867356 6.95437 0.844225L9.01927 0.819289V9.24978V17.6803L6.92702 17.6597L4.83476 17.6391L4.34246 17.4885C4.0717 17.4056 3.62185 17.2162 3.34283 17.0676C3.06381 16.9189 2.79026 16.7973 2.73485 16.7973C2.54646 16.7973 2.34593 17.0083 2.34593 17.2065C2.34593 17.4319 2.52628 17.5963 3.07913 17.8749C3.81418 18.2453 4.76048 18.4925 5.44362 18.4925H5.7373V19.7196V20.9466L4.32879 20.9637L2.92028 20.9807L2.59208 21.1415C2.41157 21.23 2.13939 21.4269 1.98721 21.579C1.46489 22.1012 1.31173 22.6274 1.30834 23.9118C1.30653 24.5847 1.36473 24.8594 1.52757 24.9465C1.59196 24.9809 5.63868 25 12.8625 25H24.0972L24.2204 24.869C24.3409 24.7407 24.3431 24.715 24.3256 23.6522L24.3078 22.5665L24.1323 22.196C23.9198 21.7476 23.5303 21.3507 23.0915 21.1354L22.7762 20.9807L21.354 20.9533L19.9318 20.926V19.7229V18.5198L20.8617 18.4924C21.7301 18.4667 21.8127 18.455 22.1108 18.3155C22.5528 18.1087 22.8151 17.8873 23.0694 17.5065C23.4219 16.9789 23.4599 16.705 23.4599 14.6948V12.9693H24.4888C25.2899 12.9693 25.5411 12.9522 25.6238 12.8919C25.7179 12.8232 25.7331 12.7251 25.7573 12.0306L25.7847 11.2468L26.7799 11.2319L27.7752 11.217L27.8876 11.0741C27.9955 10.937 28 10.8634 28 9.25076C28 7.63811 27.9955 7.5645 27.8876 7.42741L27.7752 7.28457L26.7799 7.26964L25.7847 7.25477L25.7695 6.50564C25.7488 5.48719 25.8091 5.53219 24.4645 5.53219H23.4599V3.84702C23.4599 2.01279 23.426 1.68654 23.1857 1.21067C22.9804 0.804031 22.4663 0.329968 22.0533 0.166406C21.7642 0.051896 21.6321 0.0393185 20.5219 0.0205616L19.3069 0L19.1681 0.138736C18.9913 0.315477 18.9862 0.551059 19.1559 0.710411C19.2767 0.823882 19.33 0.829296 20.322 0.829296C21.4952 0.829296 21.7684 0.88059 22.1132 1.16561C22.2299 1.26213 22.3835 1.46583 22.4545 1.61834L22.5837 1.89565L22.5842 9.26618C22.5846 15.3969 22.5721 16.667 22.5095 16.8167C22.4023 17.0734 22.1123 17.3856 21.8515 17.5251L21.6275 17.6449L15.761 17.6595L9.89446 17.6741V9.25175V0.829296H13.9027C18.2599 0.829296 18.0982 0.84067 18.1764 0.529349C18.2163 0.370052 18.0938 0.0942221 17.9602 0.0429824C17.9115 0.0243348 14.9999 0.0112651 11.4899 0.0139447C6.55785 0.0177726 5.02068 0.0347796 4.72263 0.0889176ZM11.3167 1.92299C11.1538 2.08584 11.1708 2.37852 11.3514 2.52053C11.4945 2.63308 11.527 2.6339 15.8939 2.6339H20.2923L20.4266 2.49964C20.5924 2.33395 20.6035 2.07502 20.4515 1.92299C20.3439 1.81543 20.2692 1.81362 15.8841 1.81362C11.499 1.81362 11.4242 1.81543 11.3167 1.92299ZM11.3262 4.94783C11.1748 5.10893 11.1703 5.38586 11.3167 5.53219C11.4242 5.63976 11.499 5.64156 15.8745 5.64156H20.323L20.442 5.51502C20.6102 5.33593 20.599 5.07798 20.4167 4.93465C20.2736 4.82211 20.2413 4.82129 15.8588 4.82129H11.4451L11.3262 4.94783ZM24.9368 9.25076V12.1491H24.1984H23.4599V9.25076V6.35247H24.1984H24.9368V9.25076ZM27.1795 9.25076V10.3991H26.4684H25.7573V9.25076V8.10238H26.4684H27.1795V9.25076ZM11.3167 8.81328C11.1538 8.97614 11.1708 9.26881 11.3514 9.41083C11.4945 9.52337 11.5271 9.52419 15.8841 9.52419C20.241 9.52419 20.2736 9.52337 20.4167 9.41083C20.5974 9.26881 20.6144 8.97614 20.4515 8.81328C20.3439 8.70572 20.2692 8.70391 15.8841 8.70391C11.499 8.70391 11.4242 8.70572 11.3167 8.81328ZM11.3514 12.6452C11.1708 12.7872 11.1538 13.0799 11.3167 13.2428C11.4242 13.3503 11.499 13.3521 15.8841 13.3521C20.2692 13.3521 20.3439 13.3503 20.4515 13.2428C20.6144 13.0799 20.5974 12.7872 20.4167 12.6452C20.2736 12.5327 20.241 12.5319 15.8841 12.5319C11.5271 12.5319 11.4945 12.5327 11.3514 12.6452ZM11.3167 15.7036C11.1538 15.8664 11.1708 16.1591 11.3514 16.3011C11.4945 16.4137 11.5271 16.4145 15.8841 16.4145C20.241 16.4145 20.2736 16.4137 20.4167 16.3011C20.5974 16.1591 20.6144 15.8664 20.4515 15.7036C20.3439 15.596 20.2692 15.5942 15.8841 15.5942C11.499 15.5942 11.4242 15.596 11.3167 15.7036ZM19.084 19.7229V20.9533H12.8482H6.61249V19.7229V18.4925H12.8482H19.084V19.7229ZM22.5925 21.8371C22.8926 21.9269 23.2342 22.2401 23.3848 22.5635C23.4978 22.8062 23.5137 22.9218 23.5141 23.5098L23.5146 24.1797H12.8482H2.18183L2.18216 23.5372C2.18233 23.1838 2.20913 22.7986 2.24173 22.6811C2.3159 22.4141 2.80585 21.9107 3.06375 21.8366C3.34808 21.7548 22.3195 21.7553 22.5925 21.8371Z" fill="white"/>
</svg>
