<svg width="28" height="27" viewBox="0 0 28 27" fill="none" xmlns="http://www.w3.org/2000/svg">
<path opacity="0.6" fill-rule="evenodd" clip-rule="evenodd" d="M3.7261 0.191401C2.34681 0.435283 2.23342 0.465755 1.90391 0.680944C1.45149 0.976439 1.32618 1.23488 0.633962 3.30081C0.247185 4.45512 0 5.27764 0 5.41032C0 5.52994 0.245544 7.02634 0.545623 8.73572C0.945966 11.0163 1.12275 11.9048 1.20967 12.0734C1.4114 12.4645 3.72468 15.3488 3.96541 15.5093C4.29869 15.7315 4.61873 15.8357 4.96843 15.8357C5.49534 15.8357 7.75157 15.4227 8.07692 15.2667C8.56297 15.0336 8.923 14.5457 9.03005 13.9748C9.07846 13.7166 9.04887 13.4765 8.7775 11.9231C8.60848 10.9555 8.4812 10.1355 8.49471 10.1009C8.51298 10.0539 10.6976 9.62641 10.8882 9.63251C10.9049 9.63305 10.2348 13.3528 9.3991 17.8986C8.56336 22.4444 7.87891 26.1698 7.87814 26.1772C7.87732 26.1846 6.18028 26.1907 4.10692 26.1907C2.03355 26.1907 0.297289 26.2058 0.248607 26.2242C0.115032 26.2747 -0.00754847 26.5467 0.0324365 26.7038C0.113446 27.022 -0.943832 26.9997 14.0176 26.9997H27.7374L27.8716 26.8673C28.0428 26.6986 28.0428 26.4918 27.8716 26.3231C27.7529 26.206 27.6898 26.1907 27.3266 26.1907H26.9158L26.9002 24.1738C26.8828 21.9231 26.8927 21.9789 26.4981 21.906L26.3103 21.8712V17.0951V12.319L26.5648 12.0414C26.7047 11.8887 26.8832 11.6303 26.9613 11.4672C27.0847 11.2095 27.1034 11.0998 27.1034 10.6312C27.1034 10.1531 27.0858 10.0545 26.9488 9.762C26.8637 9.58052 26.6853 9.32671 26.5522 9.19792L26.3103 8.96386V7.93008V6.89631L26.8162 6.80155C27.3691 6.69806 27.5683 6.57854 27.5683 6.35052C27.5683 6.17125 26.9565 4.58629 26.7017 4.1057C26.4626 3.65471 25.778 2.95311 25.3162 2.68588C24.6873 2.32194 23.7472 2.09548 23.1104 2.15453C22.9298 2.17125 21.773 2.35834 20.5395 2.5703L18.2968 2.95564L15.3355 2.94815L12.3742 2.94065L12.2314 3.06464C12.1161 3.16463 12.076 3.26915 12.0241 3.60596C11.9785 3.90129 11.9345 4.03035 11.8736 4.04723C11.8264 4.06039 11.443 4.12587 11.0219 4.19269C10.337 4.30141 10.2396 4.33043 10.1001 4.46736C9.97498 4.59011 9.95146 4.64966 9.98127 4.76744C10.0738 5.1331 10.2586 5.16843 11.186 4.99768C11.4868 4.94224 11.7435 4.90718 11.7563 4.91975C11.7873 4.94995 11.1023 8.67872 11.0567 8.72763C11.0169 8.77046 8.35304 9.25525 8.32104 9.22548C8.30069 9.20661 7.66389 5.62351 7.67794 5.60701C7.68194 5.60231 7.96643 5.54887 8.31005 5.48825C8.99969 5.36668 9.15296 5.27807 9.15296 5.00119C9.15296 4.81965 9.05789 4.68126 8.88986 4.61827C8.82466 4.59384 8.5155 4.61983 8.15601 4.68007C7.81436 4.7373 7.53026 4.77704 7.52457 4.76836C7.51893 4.75973 7.37688 3.96299 7.20895 2.99787C7.00268 1.81223 6.86446 1.16089 6.78279 0.989599C6.50902 0.415436 5.91647 0.0317621 5.25625 0.00129034C5.0129 -0.00992756 4.51513 0.0518788 3.7261 0.191401ZM5.51192 0.87208C5.77578 0.980754 5.92779 1.12551 6.03615 1.37133C6.14106 1.60939 8.20486 13.357 8.20486 13.7162C8.20486 14.0645 8.00258 14.3908 7.69966 14.5312C7.37951 14.6795 5.074 15.0578 4.80143 15.0066C4.68952 14.9857 4.52848 14.9109 4.44359 14.8404C4.22069 14.6555 2.03278 11.8793 1.94515 11.6702C1.90462 11.5734 1.63145 10.1229 1.33821 8.44697L0.805006 5.3998L1.44455 3.50187C2.03388 1.75296 2.09902 1.59105 2.27379 1.43977C2.49909 1.2447 2.46359 1.25441 3.88363 1.00044C5.19253 0.766319 5.24515 0.762166 5.51192 0.87208ZM24.021 3.05536C24.8004 3.20508 25.639 3.84321 26.0132 4.57135C26.1532 4.8436 26.5942 5.97375 26.5699 5.99769C26.5421 6.02514 18.9082 7.36887 18.8888 7.34972C18.8331 7.29482 18.2321 3.83156 18.2739 3.8061C18.3181 3.77919 22.7114 3.02964 23.1104 2.98099C23.3034 2.95742 23.6651 2.98698 24.021 3.05536ZM17.3575 3.79532C17.3709 3.81754 18.1257 7.90091 19.0347 12.8694C20.2128 19.3084 20.715 21.9418 20.783 22.0379C20.9957 22.338 21.4967 22.187 21.4967 21.8228C21.4967 21.7342 20.9416 18.637 20.2631 14.9403C19.5847 11.2435 19.0394 8.20918 19.0515 8.19726C19.0636 8.18534 20.1356 7.9865 21.4338 7.75534L23.7941 7.3351V8.14161V8.94816L23.5441 9.21162C22.8858 9.90551 22.7909 10.9431 23.3119 11.7502C23.4028 11.891 23.5484 12.0654 23.6356 12.1377L23.7941 12.2692V17.0702V21.8712L23.6013 21.9069C23.2434 21.9731 23.2471 21.9493 23.2471 24.1802V26.1907H22.7822C22.5264 26.1907 22.3169 26.1725 22.3165 26.1502C22.3161 26.128 22.1938 25.4545 22.0449 24.6536C21.8151 23.4185 21.7562 23.1831 21.6567 23.1031C21.5009 22.9778 21.3247 22.9839 21.1486 23.1205C20.956 23.2698 20.9608 23.3609 21.242 24.8963L21.4741 26.1637L15.1315 26.1774C11.643 26.185 8.77636 26.1789 8.7612 26.1639C8.73812 26.1412 12.7653 4.02588 12.8296 3.82228C12.8461 3.76981 13.3469 3.75487 15.092 3.75487C16.3246 3.75487 17.3441 3.7731 17.3575 3.79532ZM2.43411 3.91024C2.04908 4.00953 1.69873 4.29457 1.4981 4.67171C1.35227 4.94596 1.36048 5.54536 1.51402 5.83196C1.96588 6.67546 3.04734 6.8673 3.71615 6.22264C4.01354 5.93594 4.1265 5.66498 4.12672 5.238C4.12699 4.69782 3.86197 4.26485 3.38172 4.02075C3.15132 3.90367 2.67511 3.84811 2.43411 3.91024ZM3.10193 4.81C3.16833 4.85233 3.25104 4.98026 3.28566 5.09422C3.44943 5.63306 2.78221 6.01759 2.37695 5.61796C2.19896 5.44246 2.16455 5.26287 2.26399 5.02815C2.40288 4.70035 2.77713 4.6029 3.10193 4.81ZM13.8805 4.89138C13.8283 4.92142 13.7623 4.98873 13.734 5.04093C13.6691 5.1605 10.1193 24.4904 10.1193 24.7242C10.1193 24.8244 10.1651 24.9414 10.2287 25.0042C10.3364 25.1104 10.411 25.112 15.0909 25.112C19.6788 25.112 19.8481 25.1085 19.972 25.0096C20.0703 24.931 20.0984 24.8585 20.0918 24.6995C20.0871 24.5852 19.28 20.1235 18.2983 14.7845C16.7561 6.39679 16.4977 5.06062 16.3974 4.95534C16.2839 4.83621 16.2556 4.83356 15.1284 4.83513C14.4528 4.8361 13.9363 4.8594 13.8805 4.89138ZM15.9778 6.74811C16.0863 7.34136 16.1696 7.8336 16.163 7.84196C16.1431 7.8672 13.994 8.24052 13.9768 8.22175C13.9679 8.21215 14.0676 7.63394 14.1983 6.93687C14.329 6.23979 14.4369 5.66267 14.4382 5.65431C14.4395 5.646 14.7421 5.646 15.1106 5.65431L15.7807 5.66946L15.9778 6.74811ZM25.4776 7.8055L25.4624 8.56632L25.0522 8.56627L24.6419 8.56621V7.87443V7.18269L24.9701 7.12061C25.5466 7.01162 25.4948 6.94172 25.4776 7.8055ZM16.6594 10.4695C16.8418 11.4632 16.9824 12.2762 16.9719 12.2762C16.951 12.2762 13.5486 10.759 13.5216 10.7377C13.5065 10.7258 13.7826 9.13062 13.8027 9.11363C13.8138 9.10424 16.1987 8.67327 16.273 8.66723C16.3031 8.6648 16.4769 9.47584 16.6594 10.4695ZM25.4489 9.44078C25.7761 9.55593 26.0379 9.78719 26.1789 10.0856C26.5776 10.9299 25.9924 11.8423 25.0522 11.8423C24.6665 11.8423 24.3609 11.705 24.1144 11.421C23.766 11.0198 23.7023 10.5373 23.9365 10.074C24.1518 9.64799 24.5937 9.36856 25.0522 9.36856C25.1575 9.36856 25.336 9.40103 25.4489 9.44078ZM3.27549 9.89198C2.28303 10.4031 2.28303 11.7762 3.27549 12.2873C4.02426 12.673 4.95152 12.3113 5.22223 11.528C5.62224 10.3706 4.3774 9.32439 3.27549 9.89198ZM24.7787 10.3346C24.6158 10.4952 24.6328 10.7839 24.8134 10.9239C24.9783 11.0518 25.0475 11.0601 25.2373 10.9748C25.4183 10.8935 25.5114 10.6675 25.4402 10.4826C25.3391 10.2206 24.9766 10.1395 24.7787 10.3346ZM4.27807 10.7066C4.42488 10.836 4.45551 10.902 4.45551 11.0897C4.45551 11.2773 4.42488 11.3433 4.27807 11.4727C4.15467 11.5815 4.04303 11.629 3.91098 11.629C3.77894 11.629 3.6673 11.5815 3.5439 11.4727C3.39709 11.3433 3.36645 11.2773 3.36645 11.0897C3.36645 10.902 3.39709 10.836 3.5439 10.7066C3.6673 10.5978 3.77894 10.5503 3.91098 10.5503C4.04303 10.5503 4.15467 10.5978 4.27807 10.7066ZM15.0611 12.3288C16.3065 12.8872 16.6663 13.0699 16.6142 13.1176C16.4518 13.2662 12.6218 15.8402 12.598 15.8167C12.5758 15.7948 13.2359 12.0729 13.3292 11.694C13.3459 11.626 13.3778 11.5775 13.3999 11.5862C13.4221 11.5949 14.1696 11.9291 15.0611 12.3288ZM25.4898 17.272V21.8761H25.0522H24.6146V17.272V12.6679H25.0522H25.4898V17.272ZM17.7641 16.4914C18.0427 18.0088 18.2605 19.2603 18.2482 19.2724C18.2318 19.2886 12.8962 16.7896 12.8132 16.7269C12.7945 16.7127 17.1866 13.7323 17.226 13.7324C17.2434 13.7324 17.4855 14.974 17.7641 16.4914ZM15.1644 18.7549L17.9345 20.0681L17.7875 20.158C17.2438 20.4905 11.1035 23.9096 11.1019 23.8806C11.1008 23.8609 11.3644 22.3938 11.6876 20.6207C12.0702 18.5215 12.296 17.4046 12.3347 17.4193C12.3675 17.4317 13.6409 18.0327 15.1644 18.7549ZM18.845 22.3903C19.0141 23.3088 19.1656 24.1149 19.1818 24.1817L19.2112 24.303L15.6635 24.3019L12.1158 24.3007L12.4167 24.1274C13.2745 23.6334 18.5172 20.701 18.5266 20.7099C18.5326 20.7156 18.676 21.4718 18.845 22.3903ZM26.0368 24.4648V26.1907H25.0522H24.0676V24.4648V22.739H25.0522H26.0368V24.4648Z" fill="white"/>
</svg>
