<svg width="20" height="20" viewBox="0 0 20 20" fill="none" xmlns="http://www.w3.org/2000/svg">
<path d="M13.3327 4.58333L13.3327 14.1667C13.3327 16.0083 11.841 17.5 9.99935 17.5C8.15768 17.5 6.66602 16.0083 6.66602 14.1667L6.66601 3.75C6.66601 2.6 7.59935 1.66667 8.74935 1.66667C9.89935 1.66667 10.8327 2.6 10.8327 3.75L10.8327 12.5C10.8327 12.9583 10.4577 13.3333 9.99935 13.3333C9.54102 13.3333 9.16602 12.9583 9.16602 12.5L9.16602 4.58333L7.91602 4.58333L7.91602 12.5C7.91602 13.65 8.84935 14.5833 9.99935 14.5833C11.1493 14.5833 12.0827 13.65 12.0827 12.5L12.0827 3.75C12.0827 1.90833 10.591 0.416666 8.74935 0.416666C6.90768 0.416666 5.41601 1.90833 5.41601 3.75L5.41602 14.1667C5.41602 16.7 7.46602 18.75 9.99935 18.75C12.5327 18.75 14.5827 16.7 14.5827 14.1667L14.5827 4.58333L13.3327 4.58333Z" fill="#E30613"/>
</svg>
