<svg width="20" height="20" viewBox="0 0 20 20" fill="none" xmlns="http://www.w3.org/2000/svg">
<path d="M19.5827 5.00033C19.5827 4.77931 19.4949 4.56735 19.3386 4.41107C19.1823 4.25479 18.9704 4.16699 18.7493 4.16699H9.99935C9.77834 4.16699 9.56637 4.25479 9.41009 4.41107C9.25381 4.56735 9.16602 4.77931 9.16602 5.00033C9.16602 5.22134 9.25381 5.4333 9.41009 5.58958C9.56637 5.74586 9.77834 5.83366 9.99935 5.83366H18.7493C18.9704 5.83366 19.1823 5.74586 19.3386 5.58958C19.4949 5.4333 19.5827 5.22134 19.5827 5.00033Z" fill="white"/>
<path d="M1.24935 5.83334H3.47852C3.6751 6.38935 4.06191 6.85797 4.57058 7.15636C5.07926 7.45476 5.67705 7.56373 6.25829 7.464C6.83954 7.36428 7.36682 7.06228 7.74694 6.61139C8.12705 6.1605 8.33554 5.58974 8.33554 5.00001C8.33554 4.41027 8.12705 3.83951 7.74694 3.38862C7.36682 2.93773 6.83954 2.63573 6.25829 2.53601C5.67705 2.43628 5.07926 2.54525 4.57058 2.84365C4.06191 3.14204 3.6751 3.61066 3.47852 4.16667H1.24935C1.02834 4.16667 0.816374 4.25447 0.660093 4.41075C0.503813 4.56703 0.416016 4.77899 0.416016 5.00001C0.416016 5.22102 0.503813 5.43298 0.660093 5.58926C0.816374 5.74554 1.02834 5.83334 1.24935 5.83334ZM5.83268 4.16667C5.9975 4.16667 6.15862 4.21555 6.29566 4.30711C6.4327 4.39868 6.53951 4.52883 6.60258 4.6811C6.66565 4.83337 6.68216 5.00093 6.65 5.16258C6.61785 5.32423 6.53848 5.47272 6.42194 5.58926C6.30539 5.7058 6.15691 5.78517 5.99526 5.81733C5.83361 5.84948 5.66605 5.83298 5.51378 5.76991C5.36151 5.70683 5.23136 5.60002 5.13979 5.46298C5.04822 5.32594 4.99935 5.16482 4.99935 5.00001C4.99935 4.77899 5.08715 4.56703 5.24343 4.41075C5.39971 4.25447 5.61167 4.16667 5.83268 4.16667Z" fill="white"/>
<path d="M18.7496 9.16667H15.6871C15.4905 8.61066 15.1037 8.14204 14.595 7.84365C14.0864 7.54525 13.4886 7.43628 12.9073 7.53601C12.3261 7.63573 11.7988 7.93773 11.4187 8.38862C11.0386 8.83951 10.8301 9.41027 10.8301 10C10.8301 10.5897 11.0386 11.1605 11.4187 11.6114C11.7988 12.0623 12.3261 12.3643 12.9073 12.464C13.4886 12.5637 14.0864 12.4548 14.595 12.1564C15.1037 11.858 15.4905 11.3894 15.6871 10.8333H18.7496C18.9706 10.8333 19.1826 10.7455 19.3389 10.5893C19.4951 10.433 19.5829 10.221 19.5829 10C19.5829 9.77899 19.4951 9.56703 19.3389 9.41075C19.1826 9.25447 18.9706 9.16667 18.7496 9.16667ZM13.3329 10.8333C13.1681 10.8333 13.007 10.7845 12.87 10.6929C12.7329 10.6013 12.6261 10.4712 12.563 10.3189C12.5 10.1666 12.4835 9.99908 12.5156 9.83743C12.5478 9.67578 12.6271 9.52729 12.7437 9.41075C12.8602 9.29421 13.0087 9.21484 13.1704 9.18268C13.332 9.15053 13.4996 9.16703 13.6518 9.23011C13.8041 9.29318 13.9343 9.39999 14.0258 9.53703C14.1174 9.67407 14.1663 9.83519 14.1663 10C14.1663 10.221 14.0785 10.433 13.9222 10.5893C13.7659 10.7455 13.5539 10.8333 13.3329 10.8333Z" fill="white"/>
<path d="M9.16602 9.16699H1.24935C1.02834 9.16699 0.816374 9.25479 0.660093 9.41107C0.503813 9.56735 0.416016 9.77931 0.416016 10.0003C0.416016 10.2213 0.503813 10.4333 0.660093 10.5896C0.816374 10.7459 1.02834 10.8337 1.24935 10.8337H9.16602C9.38703 10.8337 9.59899 10.7459 9.75527 10.5896C9.91155 10.4333 9.99935 10.2213 9.99935 10.0003C9.99935 9.77931 9.91155 9.56735 9.75527 9.41107C9.59899 9.25479 9.38703 9.16699 9.16602 9.16699Z" fill="white"/>
<path d="M18.7507 14.167H11.6673C11.4463 14.167 11.2343 14.2548 11.0781 14.4111C10.9218 14.5673 10.834 14.7793 10.834 15.0003C10.834 15.2213 10.9218 15.4333 11.0781 15.5896C11.2343 15.7459 11.4463 15.8337 11.6673 15.8337H18.7507C18.9717 15.8337 19.1836 15.7459 19.3399 15.5896C19.4962 15.4333 19.584 15.2213 19.584 15.0003C19.584 14.7793 19.4962 14.5673 19.3399 14.4111C19.1836 14.2548 18.9717 14.167 18.7507 14.167Z" fill="white"/>
<path d="M7.49935 12.5C6.98285 12.5006 6.47921 12.6611 6.05766 12.9596C5.63611 13.258 5.31735 13.6797 5.14518 14.1667H1.24935C1.02834 14.1667 0.816374 14.2545 0.660093 14.4107C0.503813 14.567 0.416016 14.779 0.416016 15C0.416016 15.221 0.503813 15.433 0.660093 15.5893C0.816374 15.7455 1.02834 15.8333 1.24935 15.8333H5.14518C5.298 16.2656 5.56673 16.6475 5.92198 16.9372C6.27723 17.227 6.70533 17.4135 7.15945 17.4764C7.61357 17.5392 8.07623 17.476 8.49684 17.2936C8.91744 17.1112 9.2798 16.8167 9.54427 16.4422C9.80874 16.0677 9.96515 15.6277 9.99639 15.1704C10.0276 14.713 9.9325 14.2558 9.7214 13.8488C9.5103 13.4419 9.19137 13.1008 8.79947 12.8629C8.40757 12.625 7.9578 12.4995 7.49935 12.5ZM7.49935 15.8333C7.33453 15.8333 7.17341 15.7845 7.03637 15.6929C6.89933 15.6013 6.79252 15.4712 6.72945 15.3189C6.66638 15.1666 6.64987 14.9991 6.68203 14.8374C6.71418 14.6758 6.79355 14.5273 6.91009 14.4107C7.02664 14.2942 7.17512 14.2148 7.33677 14.1827C7.49842 14.1505 7.66598 14.167 7.81825 14.2301C7.97052 14.2932 8.10067 14.4 8.19224 14.537C8.28381 14.6741 8.33268 14.8352 8.33268 15C8.33268 15.221 8.24488 15.433 8.0886 15.5893C7.93232 15.7455 7.72036 15.8333 7.49935 15.8333Z" fill="white"/>
</svg>
